<?xml version="1.0" encoding="UTF-8"?>
<!-- Created with Grafika (https://www.grafika.cc/) -->
<svg xmlns="http://www.w3.org/2000/svg" xmlns:svg="http://www.w3.org/2000/svg" xmlns:xlink="http://www.w3.org/1999/xlink" width="81.619247437" height="15.317649841" viewBox="0 0 81.619247437 15.317649841" preserveAspectRatio="xMidYMid meet">
	<g transform="matrix(1, 0, 0, 1, 202.36924743652344, 72.3176498413086)">
		<path transform="matrix(0.2236470729112625, 0, 0, 0.2236470729112625, -162.46656799316406, -63.83972930908203)" d="M-165.004111791,5.716236301 C-165.004111791,-0.990754757 -161.650596826,-4.344267321 -151.590068855,-4.344267321 Q-138.176092075,-4.344267332 -138.176092077,-17.758243272 Q-138.176105156,-27.818732097 -151.590086306,-27.818749853 L-171.711039565,-27.818744696 L-171.711088069,-37.879231512 L-151.590083971,-37.879229397 Q-138.176119847,-37.879229397 -131.469122251,-27.818759933 Q-124.762084359,-17.758246305 -131.469122285,-4.344243807 Q-138.176121633,5.716236291 -151.590083968,5.716236293 L-165.004111791,5.716236301 ZM-178.418065091,29.190730052 L-178.418065071,-37.879229397 L-168.357565246,-37.907593292 L-168.357577158,29.190730068 L-178.418065091,29.190730052 ZM-124.762100868,29.190713016 L-124.762100891,-17.758260054 L-114.701640335,-17.758260054 L-114.701640357,29.190712989 L-124.762100868,29.190713016 ZM-114.701640308,5.716229208 Q-121.408629726,-4.344264436 -114.701581424,-14.404757632 Q-101.287601357,-27.818732468 -84.520116255,-11.051266564 L-91.227106721,-4.344247644 Q-101.287603099,-14.404752532 -111.34812082,-4.344249782 Q-114.701595457,-0.990767799 -114.701640308,5.716229208 ZM-71.690757226,30.582698163 Q-85.104753079,30.582698163 -91.811770724,20.522202639 Q-98.518743067,7.1082028 -91.811787839,-6.305786719 Q-85.104773991,-16.366272826 -71.690760327,-16.366272861 Q-58.276814191,-16.366272863 -51.569801682,-6.305770602 Q-44.862812188,3.754710481 -48.216288188,13.815200209 L-81.751240742,13.815199011 C-81.751240742,7.108211915 -78.397761532,3.754714917 -58.276808224,3.754714898 Q-58.276793424,-6.30579649 -71.690743684,-6.30579649 Q-85.104762715,-6.30579648 -85.104757188,7.108197696 Q-85.104786273,20.522192926 -71.69075723,20.522192942 L-11.327788801,20.522203328 L-11.32779421,30.582695767 L-71.690757226,30.582698163 ZM-44.862781864,13.815206264 L-44.862781804,0.401213675 L-11.327791556,0.401213678 L-11.327791559,13.815206285 L-44.862781864,13.815206264 ZM5.439689726,30.582682118 L5.439689669,-36.487262319 L15.500142632,-36.487262255 L15.500142622,30.582682114 L5.439689726,30.582682118 ZM-44.862792153,-6.305802419 L-44.862792153,-16.366290905 L49.035148518,-16.366294379 L49.035160161,-6.305773669 L-44.862792153,-6.305802419 ZM49.035178427,30.582698191 Q35.621174857,30.58269819 28.914157253,20.522202648 Q22.207135608,7.108200941 28.914178481,-6.305787941 Q35.621144761,-16.366272842 49.035175281,-16.36627289 Q62.449128109,-16.366272884 69.156126315,-6.305770581 Q75.863111691,3.882875856 72.509639801,13.815200207 L38.974629194,13.815202228 C38.974629201,7.108198076 42.328131178,3.754714924 62.449135034,3.754714933 Q62.449173005,-5.311431312 49.035172635,-6.305789912 Q35.621134804,-6.163751234 35.62113374,7.108205086 Q35.621137355,20.522192999 49.035178425,20.522192999 L69.156155677,20.52220337 L62.449171663,30.582691762 L49.035178427,30.582698191 ZM95.984126061,30.582699169 C92.770814972,26.063330679 86.618338147,11.552951958 65.802642592,-16.36629089 L79.216630304,-16.366290936 C88.032507583,-4.285271853 102.455805184,21.012712303 109.398116789,30.582682116 L95.984126061,30.582699169 ZM65.860247776,30.582683508 L95.98412202,-16.366297052 L109.398088532,-16.366277168 L79.216624154,30.582682108 L65.860247776,30.582683508 ZM119.458584544,30.582682099 L119.458584583,-36.487262344 L129.519136229,-36.487262323 L129.519136227,30.582699198 L119.458584544,30.582682099 ZM99.337615094,-6.305802438 L99.337615092,-16.366290928 L163.054086893,-16.366264606 L163.054079136,-6.305770729 L99.337615094,-6.305802438 ZM163.054079309,30.582698164 Q139.579600762,30.582698164 139.579600764,7.108203352 Q139.579600759,-16.366272887 163.054079281,-16.366272895 Q186.528557874,-16.366272895 186.528557848,7.108203351 Q186.528557855,30.58269816 163.054079309,30.582698164 ZM163.054079307,20.52219824 Q176.468061617,20.522198237 176.468061626,7.108203351 Q176.468061629,-6.305783559 163.054079326,-6.305783559 Q149.640062881,-6.305783566 149.64006288,7.108203347 Q149.640062878,20.52219824 163.054079307,20.52219824 Z" style="fill:#FFFFFF;" />
	</g>
</svg>