<?xml version="1.0" encoding="UTF-8"?>
<!-- Created with Grafika (https://www.grafika.cc/) -->
<svg xmlns="http://www.w3.org/2000/svg" xmlns:svg="http://www.w3.org/2000/svg" xmlns:xlink="http://www.w3.org/1999/xlink" width="81.75" height="15.000484467" viewBox="0 0 81.75 15.000484467" preserveAspectRatio="xMidYMid meet">
	<g transform="matrix(1, 0, 0, 1, 202.5, 72)">
		<path transform="matrix(0.2236470729112625, 0, 0, 0.2236470729112625, -162.46656799316406, -63.83972930908203)" d="M-165.588749724,3.754707374 C-165.588749724,-2.952283684 -162.235234749,-6.30579617 -152.174706778,-6.30579617 Q-138.760729979,-6.305796114 -138.760730014,-16.366274076 Q-138.760743126,-26.426762876 -152.174724229,-26.426780707 L-172.295677497,-26.426775553 L-172.29568357,-36.48725273 L-152.174721887,-36.487260278 Q-128.700263831,-36.487260339 -128.700262204,-16.366296872 Q-128.700210877,3.754707375 -152.174721919,3.754707394 L-165.588749724,3.754707374 ZM-179.002702994,30.582699151 L-179.002703017,-36.487260233 L-168.942208807,-36.487267114 L-168.942215086,30.582682134 L-179.002702994,30.582699151 ZM-125.346738811,30.582699172 L-125.34673884,-16.366290916 L-115.286278255,-16.366290925 L-115.286278325,30.58269918 L-125.346738811,30.582699172 ZM-115.286278248,7.108198346 Q-125.346765628,-2.952278303 -115.286287583,-13.012788561 Q-98.518741342,-26.426763405 -81.751256256,-9.659297461 L-88.458246696,-2.952278556 Q-98.518743085,-13.01278348 -111.932758762,-2.952280698 Q-118.639733678,3.754700132 -115.286278248,7.108198346 ZM-71.690757226,30.582698163 Q-95.165290779,30.809757894 -95.165285835,7.108200272 Q-95.16526794,-16.366277896 -71.690760327,-16.366272861 Q-48.21628468,-16.366272871 -48.216288188,13.815200209 L-81.751240742,13.815199011 C-81.751240742,7.108211915 -78.397761532,3.754714917 -58.276808224,3.754714898 Q-58.276793424,-6.30579649 -71.690743684,-6.30579649 Q-85.104762715,-6.30579648 -85.104757188,7.108197696 Q-85.104786273,20.522192926 -71.69075723,20.522192942 L-11.327788801,20.522203328 L-11.32779421,30.582695767 L-71.690757226,30.582698163 ZM-44.862781864,13.815206264 L-44.862781804,0.401213675 L-11.327791556,0.401213678 L-11.327791559,13.815206285 L-44.862781864,13.815206264 ZM5.439689726,30.582682118 L5.439689669,-36.487262319 L15.500142632,-36.487262255 L15.500142622,30.582682114 L5.439689726,30.582682118 ZM-44.862792153,-6.305802419 L-44.862792153,-16.366290905 L49.035148518,-16.366294379 L49.035160161,-6.305773669 L-44.862792153,-6.305802419 ZM49.035178427,30.582698191 Q25.560659809,30.582681128 25.56068054,7.108204053 Q25.56065087,-16.366272737 49.035175281,-16.36627289 Q72.509613019,-16.36627295 72.509639801,13.815200207 L38.974629194,13.815202228 C38.974629201,7.108198076 42.328131178,3.754714924 62.449135034,3.754714933 Q62.449173005,-5.311431312 49.035172635,-6.305789912 Q35.621134804,-6.163751234 35.62113374,7.108205086 Q35.621137355,20.522192999 49.035178425,20.522192999 L69.156155677,20.52220337 L62.449171663,30.582691762 L49.035178427,30.582698191 ZM95.984126061,30.582699169 C92.770814972,26.063330679 86.618338147,11.552951958 65.802642592,-16.36629089 L79.216630304,-16.366290936 C88.032507583,-4.285271853 102.455805184,21.012712303 109.398116789,30.582682116 L95.984126061,30.582699169 ZM65.860247776,30.582683508 L95.98412202,-16.366297052 L109.398088532,-16.366277168 L79.216624154,30.582682108 L65.860247776,30.582683508 ZM119.458584544,30.582682099 L119.458584583,-36.487262344 L129.519136229,-36.487262323 L129.519136227,30.582699198 L119.458584544,30.582682099 ZM99.337615094,-6.305802438 L99.337615092,-16.366290928 L163.054086893,-16.366264606 L163.054079136,-6.305770729 L99.337615094,-6.305802438 ZM163.054079309,30.582698164 Q139.579600762,30.582698164 139.579600764,7.108203352 Q139.579600759,-16.366272887 163.054079281,-16.366272895 Q186.528557874,-16.366272895 186.528557848,7.108203351 Q186.528557855,30.58269816 163.054079309,30.582698164 ZM163.054079307,20.52219824 Q176.468061617,20.522198237 176.468061626,7.108203351 Q176.468061629,-6.305783559 163.054079326,-6.305783559 Q149.640062881,-6.305783566 149.64006288,7.108203347 Q149.640062878,20.52219824 163.054079307,20.52219824 Z" style="fill:#000000;" />
	</g>
</svg>